<?xml version="1.0" encoding="UTF-8"?>
<svg id="Layer_2" data-name="Layer 2" xmlns="http://www.w3.org/2000/svg" viewBox="0 0 1828.17 417.23">
  <defs>
    <style>
      .cls-1 {
        fill: #fff;
      }
    </style>
  </defs>
  <g id="Layer_1-2" data-name="Layer 1">
    <g>
      <polygon class="cls-1" points="559.45 410.45 490.46 410.45 490.46 0 687.71 220.57 884.95 0 884.95 410.45 817.73 410.45 817.73 168.02 687.71 314 560.08 168.02 559.45 410.45"/>
      <path class="cls-1" d="M1309.4,59.52l-50.86,52.55s-30.52-40.69-110.2-40.69-141.89,67.81-135.37,144.95c6.52,77.14,60.77,133.08,140.45,133.08s101.72-28.82,101.72-28.82v-69.51h-89.85v-61.03h154.27v166.14s-55.95,61.03-164.44,61.03-214.12-72.9-215.56-200.89c-1.44-128,96.89-212.76,203.69-212.76s166.14,55.95,166.14,55.95Z"/>
      <g>
        <path class="cls-1" d="M319.09,255.33L196.97.85,0,411.3l473.62-189.03-154.52,33.06ZM111.67,311.27l79.68-174.62,59.31,127.85-138.99,46.77Z"/>
        <polygon class="cls-1" points="317.54 411.3 393.94 411.3 364.3 349.54 298.09 371.35 317.54 411.3"/>
      </g>
      <g>
        <path class="cls-1" d="M1673.64,255.33L1551.52.85l-196.97,410.45,473.62-189.03-154.52,33.06ZM1466.22,311.27l79.68-174.62,59.31,127.85-138.99,46.77Z"/>
        <polygon class="cls-1" points="1672.09 411.3 1748.49 411.3 1718.85 349.54 1652.64 371.35 1672.09 411.3"/>
      </g>
    </g>
  </g>
</svg>